<svg data-v-423bf9ae="" xmlns="http://www.w3.org/2000/svg" viewBox="0 0 359 90" class="iconLeft"><!----><!----><!----><g data-v-423bf9ae="" id="b9af374c-950e-4f4e-b775-f3b2c5b8a262" fill="#09322F" transform="matrix(4.800000366210965,0,0,4.800000366210965,109.13599853116911,-4.8240034922792105)"><path d="M3.50 13.06C3.18 13.06 2.86 12.98 2.58 12.84C2.21 12.67 2.21 12.53 2.21 12.40L2.21 9.39C2.21 8.99 2.31 8.75 2.62 8.53C2.98 8.25 3.36 8.23 3.54 8.23C4.66 8.23 5.71 9.35 5.71 10.71C5.71 12.11 4.63 13.06 3.50 13.06ZM4.00 7.41C3.89 7.41 3.79 7.41 3.68 7.42C2.59 7.57 2.14 8.33 2.07 8.33C2.04 8.33 2.03 8.29 2.03 8.25L2.03 7.42C2.03 7.34 2.00 7.27 1.92 7.27C1.85 7.27 1.82 7.31 1.68 7.38C0.21 8.25 0.18 8.23 0.18 8.32L0.18 8.33C0.18 8.43 0.21 8.41 1.12 8.82C1.29 8.89 1.30 9.03 1.30 9.10L1.30 9.13L1.30 15.60C1.30 15.83 1.22 15.95 0.99 15.99C0.35 16.13 0.18 16.10 0.18 16.35C0.18 16.59 0.32 16.63 0.41 16.63C0.48 16.63 1.25 16.52 2.27 16.52C3.05 16.52 3.46 16.58 3.58 16.58C3.71 16.58 3.75 16.48 3.75 16.37C3.75 15.93 3.47 16.02 2.63 15.93C2.34 15.90 2.32 15.71 2.32 15.57L2.32 15.53L2.32 13.61C2.32 13.51 2.34 13.45 2.42 13.45C2.45 13.45 2.84 13.54 3.32 13.54C5.26 13.54 6.65 12.29 6.65 10.43C6.65 8.81 5.56 7.41 4.00 7.41ZM8.37 4.79C8.37 5.17 8.67 5.45 9.03 5.45C9.39 5.45 9.72 5.15 9.72 4.77C9.72 4.42 9.41 4.13 9.04 4.13C8.68 4.13 8.37 4.42 8.37 4.79ZM8.23 11.75L8.23 12.40C8.23 12.66 8.20 12.85 7.85 12.91C7.22 12.99 7.17 12.96 7.17 13.29C7.17 13.43 7.24 13.52 7.38 13.52C7.42 13.52 7.97 13.44 8.67 13.44C9.35 13.44 9.91 13.52 9.95 13.52C10.11 13.52 10.12 13.33 10.12 13.22C10.12 12.98 9.95 12.99 9.49 12.92C9.18 12.88 9.17 12.84 9.17 11.13L9.17 10.67C9.17 8.96 9.25 7.60 9.25 7.49C9.25 7.32 9.14 7.27 9.06 7.27L9.04 7.27C8.97 7.27 8.96 7.29 7.50 7.99C7.35 8.06 7.13 8.12 7.13 8.29C7.13 8.40 7.22 8.44 7.29 8.47C8.19 8.83 8.25 8.82 8.25 9.04C8.25 9.31 8.23 10.12 8.23 11.75ZM12.29 8.16C12.29 8.15 12.31 8.11 12.31 8.08L12.31 7.53C12.31 7.42 12.26 7.32 12.14 7.32C12.08 7.32 12.04 7.35 12.00 7.38C10.70 8.08 10.67 8.06 10.67 8.18L10.67 8.19C10.67 8.25 10.71 8.29 10.75 8.33C11.38 8.81 11.38 8.78 11.38 9.11L11.38 12.46C11.38 12.70 11.37 12.88 11.02 12.94C10.58 13.01 10.47 12.99 10.47 13.27C10.47 13.47 10.61 13.52 10.70 13.52C10.74 13.52 11.26 13.44 11.93 13.44C12.61 13.44 13.19 13.54 13.23 13.54C13.36 13.54 13.41 13.43 13.41 13.29C13.41 12.98 13.24 13.01 12.66 12.91C12.36 12.87 12.35 12.67 12.35 12.52L12.35 12.47L12.35 9.16C12.35 9.10 12.35 9.03 12.36 8.97C12.42 8.72 12.99 8.06 13.80 8.06C14.13 8.06 14.90 8.19 15.20 8.90C15.37 9.32 15.39 10.16 15.39 10.42L15.39 12.59C15.39 12.82 15.34 12.89 15.16 12.92C14.60 13.02 14.43 12.99 14.43 13.24C14.43 13.38 14.46 13.52 14.63 13.52C14.66 13.52 15.16 13.44 15.78 13.44C16.48 13.44 16.83 13.52 16.95 13.52C17.04 13.52 17.16 13.48 17.16 13.24C17.16 13.15 17.15 13.02 16.97 12.99C16.48 12.92 16.30 12.95 16.30 12.56L16.30 12.53C16.30 10.60 16.31 10.35 16.31 10.11C16.31 9.87 16.31 9.63 16.28 9.39C16.14 7.66 14.92 7.38 14.29 7.38L14.27 7.38C13.06 7.39 12.40 8.22 12.35 8.22L12.33 8.22C12.32 8.22 12.29 8.20 12.29 8.16ZM17.61 10.56C17.61 12.95 19.17 13.71 20.31 13.71C21.31 13.71 22.22 13.20 22.79 12.46C22.86 12.38 22.89 12.29 22.89 12.24C22.89 12.11 22.79 12.03 22.67 12.03C22.53 12.03 22.41 12.15 22.34 12.22C21.91 12.64 21.29 12.91 20.68 12.91C18.91 12.91 18.61 11.05 18.61 10.88C18.61 10.75 18.69 10.77 21.59 9.77C21.99 9.63 22.72 9.49 22.72 9.07L22.72 9.06C22.72 8.93 22.67 8.82 22.61 8.75C22.09 8.04 21.17 7.41 20.20 7.41C18.80 7.41 17.61 8.60 17.61 10.56ZM21.36 9.10C21.36 9.16 21.32 9.23 21.24 9.27C21.21 9.28 18.66 10.28 18.62 10.28C18.59 10.28 18.55 10.26 18.55 10.18C18.55 8.93 19.08 8.18 19.89 8.18C20.68 8.18 21.36 8.93 21.36 9.10ZM29.46 13.69C30.51 13.69 31.32 13.12 31.77 12.50C31.81 12.45 31.85 12.36 31.85 12.28C31.85 12.14 31.74 12.04 31.61 12.04C31.29 12.04 31.00 12.80 29.90 12.80C28.62 12.80 27.69 11.63 27.69 10.33C27.69 9.16 28.43 8.18 29.29 8.18C30.10 8.18 30.34 9.02 30.98 9.02C31.28 9.02 31.54 8.81 31.54 8.48C31.54 7.95 30.77 7.45 29.76 7.45C27.97 7.45 26.77 8.78 26.77 10.68C26.77 12.40 27.85 13.69 29.46 13.69ZM33.89 8.16C33.87 8.16 33.85 8.13 33.85 8.09L33.85 7.53C33.85 7.41 33.84 7.25 33.68 7.25C33.64 7.25 33.60 7.28 33.56 7.29C32.10 8.01 32.09 7.98 32.09 8.05C32.10 8.11 32.13 8.13 32.14 8.15C32.80 8.62 32.91 8.61 32.91 8.89L32.91 12.60C32.91 12.81 32.86 12.89 32.66 12.94C32.28 13.03 32.03 12.95 32.03 13.29C32.03 13.43 32.12 13.52 32.26 13.52C32.30 13.52 32.90 13.44 33.68 13.44C34.44 13.44 35.06 13.52 35.10 13.52C35.28 13.52 35.29 13.36 35.29 13.24C35.29 12.92 35.11 12.98 34.27 12.91C33.94 12.88 33.92 12.64 33.92 12.49L33.92 12.43L33.92 9.07C33.92 8.97 33.92 8.90 33.98 8.82C34.06 8.69 34.62 8.25 35.07 8.25C35.53 8.25 35.55 8.60 35.90 8.60C36.13 8.60 36.32 8.41 36.47 8.32C36.58 8.22 36.83 8.06 36.85 7.83L36.85 7.81C36.85 7.42 36.20 7.20 35.76 7.20C35.60 7.20 35.48 7.21 35.35 7.25C34.97 7.39 33.95 8.16 33.89 8.16ZM37.18 10.56C37.18 12.95 38.74 13.71 39.89 13.71C40.88 13.71 41.79 13.20 42.36 12.46C42.43 12.38 42.46 12.29 42.46 12.24C42.46 12.11 42.36 12.03 42.24 12.03C42.10 12.03 41.99 12.15 41.92 12.22C41.48 12.64 40.87 12.91 40.25 12.91C38.49 12.91 38.18 11.05 38.18 10.88C38.18 10.75 38.26 10.77 41.16 9.77C41.57 9.63 42.29 9.49 42.29 9.07L42.29 9.06C42.29 8.93 42.24 8.82 42.18 8.75C41.66 8.04 40.74 7.41 39.77 7.41C38.37 7.41 37.18 8.60 37.18 10.56ZM40.94 9.10C40.94 9.16 40.89 9.23 40.81 9.27C40.78 9.28 38.23 10.28 38.19 10.28C38.16 10.28 38.12 10.26 38.12 10.18C38.12 8.93 38.65 8.18 39.47 8.18C40.25 8.18 40.94 8.93 40.94 9.10ZM43.04 9.11C43.04 9.80 43.46 10.50 44.59 10.82C45.04 10.95 46.27 11.09 46.27 12.01C46.27 12.57 45.77 12.95 45.14 12.95C44.32 12.95 43.68 12.42 43.54 12.12C43.34 11.73 43.57 11.26 43.22 11.26C43.01 11.26 42.97 11.33 42.97 11.69C42.97 11.89 42.98 12.15 42.98 12.53C42.98 12.74 43.01 12.85 43.15 13.01C43.55 13.48 44.44 13.71 45.08 13.71C46.47 13.71 47.21 12.71 47.21 11.82C47.21 11.59 47.15 11.13 46.79 10.71C46.27 10.11 45.61 10.07 44.90 9.87C43.86 9.58 43.79 9.06 43.79 8.86C43.79 8.41 44.20 8.12 44.67 8.12C45.14 8.12 45.64 8.41 45.82 8.67C46.02 8.95 45.98 9.35 46.27 9.35C46.38 9.35 46.59 9.31 46.59 9.13C46.59 9.07 46.41 8.15 46.33 7.66C46.31 7.59 46.27 7.39 46.10 7.39C45.93 7.39 45.88 7.53 45.75 7.53C45.68 7.53 45.47 7.46 45.05 7.46C43.79 7.46 43.04 8.27 43.04 9.11ZM47.89 8.33L48.34 8.33C48.43 8.33 48.44 8.39 48.44 8.46C48.44 8.76 48.38 10.93 48.38 11.55C48.38 11.70 48.38 11.84 48.40 12.00C48.50 13.31 49.25 13.71 49.81 13.71C50.58 13.71 51.27 13.01 51.76 12.45C51.79 12.40 51.86 12.32 51.86 12.21C51.86 12.08 51.76 11.96 51.60 11.96C51.30 11.96 50.75 12.80 50.08 12.80C49.49 12.80 49.36 12.25 49.36 11.76C49.36 11.42 49.36 11.10 49.38 8.48C49.38 8.39 49.42 8.36 49.52 8.36L51.16 8.36C51.28 8.36 51.35 8.34 51.41 8.29C51.48 8.20 51.53 7.97 51.53 7.88C51.53 7.62 51.30 7.62 51.17 7.62C51.13 7.62 51.10 7.60 51.06 7.60L49.80 7.60C49.63 7.60 49.52 7.56 49.52 7.32C49.52 7.13 49.53 6.54 49.53 6.34C49.53 6.16 49.43 6.12 49.35 6.12C49.20 6.12 49.11 6.30 49.07 6.37C48.31 7.66 47.61 7.91 47.61 8.15C47.61 8.32 47.77 8.33 47.89 8.33Z"></path></g><defs data-v-423bf9ae=""><linearGradient data-v-423bf9ae="" gradientTransform="rotate(25)" id="52944921-d554-4171-a99d-d050d35b1d19" x1="0%" y1="0%" x2="100%" y2="0%"><stop data-v-423bf9ae="" offset="0%" style="stop-color: rgb(23, 119, 117); stop-opacity: 1;"></stop><stop data-v-423bf9ae="" offset="100%" style="stop-color: rgb(40, 210, 191); stop-opacity: 1;"></stop></linearGradient></defs><g data-v-423bf9ae="" id="9aab26dc-3120-4691-9955-248bce62a944" transform="matrix(2.8125,0,0,2.8125,0,1.0290013551712036)" stroke="none" fill="url(#52944921-d554-4171-a99d-d050d35b1d19)"><path d="M0 31.984h32v-32H0v32zm2-30h28v28H2v-28z"></path><path d="M6.439 16.831h8.959l-4.48-7.741zM16.602 13.331h8.959L21.082 5.59zM6.439 26.41h8.959l-4.48-7.741zM16.602 22.91h8.959l-4.479-7.741z"></path></g><!----></svg>